# xmcd
#
# Track frame offsets:
#        150
#        20010
#        35491
#        56389
#        77980
#        98766
#        120777
#        141903
#        165667
#
# Disc length: 2417 seconds
#
# Revision: 3
# Processed by: cddbd v1.5.1PL2 Copyright (c) Steve Scherf et al.
# Submitted via: ExactAudioCopy v0.95b3
#
DISCID=6b096f09
DTITLE=Крама - Хавайся ў бульбу
DYEAR=2001
DGENRE=Rock
TTITLE0=Сябра мой Вярэніч Ленік
TTITLE1=Хавайся ў бульбу
TTITLE2=Дай мне шанец
TTITLE3=Падае дождж
TTITLE4=Свабоды мне дай
TTITLE5=Той час
TTITLE6=Ведай гэта наш блюз
TTITLE7=Стары сабака
TTITLE8=Гэй, там, налівай
EXTD=
EXTT0=
EXTT1=
EXTT2=
EXTT3=
EXTT4=
EXTT5=
EXTT6=
EXTT7=
EXTT8=
PLAYORDER=
